<svg width="32" height="34" viewBox="0 0 32 34" fill="none" xmlns="http://www.w3.org/2000/svg">
<path d="M11.2396 31.6369V26.5254C11.2395 25.2302 12.2928 24.1779 13.5974 24.1697H18.3877C19.6981 24.1697 20.7605 25.2244 20.7605 26.5254V31.622C20.7604 32.7455 21.6734 33.6585 22.8049 33.6667H26.0731C27.5994 33.6706 29.0646 33.0713 30.1453 32.0012C31.226 30.931 31.8333 29.4779 31.8333 27.9625V13.4431C31.8333 12.219 31.2868 11.0579 30.341 10.2725L19.2383 1.45712C17.2975 -0.0847856 14.5256 -0.0349761 12.6423 1.57565L1.77837 10.2725C0.787921 11.0347 0.195941 12.1993 0.166687 13.4431V27.9477C0.166687 31.1062 2.74566 33.6667 5.92698 33.6667H9.1205C9.66531 33.6706 10.1892 33.4585 10.5758 33.0774C10.9625 32.6963 11.1799 32.1778 11.1799 31.6369H11.2396Z" fill="#2B2381"/>
</svg>