
<svg width="33" height="37" viewBox="0 0 33 37" fill="none" xmlns="http://www.w3.org/2000/svg">
<path d="M32 25V3C31.9986 2.69959 31.9296 2.40335 31.798 2.13328C31.6664 1.86321 31.4757 1.62625 31.24 1.44C31.0076 1.25204 30.7361 1.11854 30.4454 1.04932C30.1547 0.9801 29.8521 0.976914 29.56 1.04L11.56 5.04C11.1156 5.14021 10.7188 5.3891 10.4351 5.74551C10.1515 6.10192 9.99795 6.54448 10 7V23.68C8.63466 23.0354 7.09713 22.851 5.61807 23.1542C4.13901 23.4575 2.79816 24.2322 1.79668 25.3621C0.7952 26.492 0.187085 27.9162 0.0635652 29.4209C-0.0599549 30.9257 0.307779 32.43 1.1116 33.7081C1.91542 34.9861 3.11199 35.9691 4.5218 36.5095C5.93161 37.05 7.47864 37.1187 8.93081 36.7054C10.383 36.2921 11.662 35.4191 12.576 34.2173C13.4899 33.0155 13.9896 31.5498 14 30.04C14.0207 29.6936 14.0207 29.3464 14 29V8.6L28 5.5V19.68C26.6339 19.035 25.0954 18.8507 23.6156 19.1547C22.1358 19.4586 20.7946 20.2345 19.7933 21.3657C18.7921 22.497 18.1848 23.9225 18.0629 25.4283C17.9409 26.934 18.3107 28.4387 19.1168 29.7164C19.9229 30.9941 21.1217 31.9757 22.5333 32.5139C23.9449 33.0521 25.4929 33.1179 26.9451 32.7012C28.3972 32.2846 29.6749 31.4081 30.5864 30.2034C31.4979 28.9986 31.9939 27.5307 32 26.02C32.019 25.6803 32.019 25.3397 32 25Z" fill="#2B2381"/>
</svg>
