
<svg width="48" height="48" viewBox="0 0 48 48" fill="none" xmlns="http://www.w3.org/2000/svg">
<path d="M2580.52 1180.05C2580.22 1180.05 2580.03 1180.24 2580.03 1180.54C2580.03 1180.83 2580.22 1181.03 2580.52 1181.03H2582.62C2582.92 1181.03 2583.11 1180.83 2583.11 1180.54C2583.11 1180.24 2582.92 1180.05 2582.62 1180.05H2580.52ZM2582.62 1181.71H2580.52C2580.22 1181.71 2580.03 1181.91 2580.03 1182.2C2580.03 1182.5 2580.22 1182.69 2580.52 1182.69H2582.62C2582.92 1182.69 2583.11 1182.5 2583.11 1182.2C2583.11 1181.91 2582.92 1181.71 2582.62 1181.71ZM2582.62 1183.33H2580.52C2580.22 1183.33 2580.03 1183.53 2580.03 1183.82C2580.03 1184.11 2580.22 1184.31 2580.52 1184.31H2582.62C2582.92 1184.31 2583.11 1184.11 2583.11 1183.82C2583.11 1183.57 2582.92 1183.33 2582.62 1183.33ZM23.5001 0.224998C10.6621 0.224998 0.225098 10.662 0.225098 23.5C0.225098 36.338 10.6621 46.775 23.5001 46.775C36.3381 46.775 46.7751 36.338 46.7751 23.5C46.7751 10.662 36.3381 0.224998 23.5001 0.224998ZM31.9281 24.872L19.3841 33.202C18.3061 33.937 16.8851 33.153 16.8851 31.83V15.121C16.8851 13.847 18.3061 13.063 19.3841 13.749L31.9281 22.128C32.9081 22.814 32.9081 24.186 31.9281 24.872Z" fill="#EB8003"/>
</svg>
